# Blender v2.93.1 OBJ File: ''
# www.blender.org
mtllib FlaredCylinder.mtl
o Cylinder
v 0.000000 -1.040000 -1.000000
v 0.000000 1.039999 -2.292405
v 0.072995 -1.040000 -0.997332
v 0.167335 1.039999 -2.286289
v 0.145601 -1.040000 -0.989343
v 0.333777 1.039999 -2.267976
v 0.217430 -1.040000 -0.976076
v 0.498438 1.039999 -2.237561
v 0.288099 -1.040000 -0.957601
v 0.660440 1.039999 -2.195208
v 0.357231 -1.040000 -0.934016
v 0.818918 1.039999 -2.141143
v 0.424457 -1.040000 -0.905448
v 0.973027 1.039999 -2.075654
v 0.489418 -1.040000 -0.872049
v 1.121944 1.039999 -1.999090
v 0.551768 -1.040000 -0.833998
v 1.264875 1.039999 -1.911860
v 0.611174 -1.040000 -0.791497
v 1.401058 1.039999 -1.814430
v 0.667319 -1.040000 -0.744772
v 1.529765 1.039999 -1.707319
v 0.719903 -1.040000 -0.694074
v 1.650310 1.039999 -1.591099
v 0.768647 -1.040000 -0.639673
v 1.762050 1.039999 -1.466390
v 0.813290 -1.040000 -0.581859
v 1.864389 1.039999 -1.333856
v 0.853593 -1.040000 -0.520940
v 1.956781 1.039999 -1.194206
v 0.889342 -1.040000 -0.457242
v 2.038732 1.039999 -1.048184
v 0.920346 -1.040000 -0.391105
v 2.109806 1.039999 -0.896570
v 0.946440 -1.040000 -0.322880
v 2.169623 1.039999 -0.740173
v 0.967484 -1.040000 -0.252933
v 2.217864 1.039999 -0.579826
v 0.983366 -1.040000 -0.181637
v 2.254272 1.039999 -0.416385
v 0.994001 -1.040000 -0.109371
v 2.278653 1.039999 -0.250723
v 0.999333 -1.040000 -0.036522
v 2.290875 1.039999 -0.083723
v 0.999333 -1.040000 0.036522
v 2.290875 1.039999 0.083723
v 0.994001 -1.040000 0.109371
v 2.278653 1.039999 0.250723
v 0.983366 -1.040000 0.181637
v 2.254272 1.039999 0.416385
v 0.967484 -1.040000 0.252933
v 2.217864 1.039999 0.579826
v 0.946440 -1.040000 0.322880
v 2.169623 1.039999 0.740173
v 0.920346 -1.040000 0.391105
v 2.109806 1.039999 0.896570
v 0.889342 -1.040000 0.457242
v 2.038732 1.039999 1.048184
v 0.853593 -1.040000 0.520940
v 1.956781 1.039999 1.194206
v 0.813290 -1.040000 0.581859
v 1.864389 1.039999 1.333856
v 0.768647 -1.040000 0.639673
v 1.762050 1.039999 1.466390
v 0.719903 -1.040000 0.694074
v 1.650310 1.039999 1.591099
v 0.667319 -1.040000 0.744772
v 1.529765 1.039999 1.707319
v 0.611174 -1.040000 0.791497
v 1.401058 1.039999 1.814430
v 0.551768 -1.040000 0.833998
v 1.264875 1.039999 1.911861
v 0.489418 -1.040000 0.872049
v 1.121944 1.039999 1.999090
v 0.424457 -1.040000 0.905448
v 0.973027 1.039999 2.075654
v 0.357231 -1.040000 0.934016
v 0.818918 1.039999 2.141143
v 0.288099 -1.040000 0.957601
v 0.660440 1.039999 2.195208
v 0.217430 -1.040000 0.976076
v 0.498438 1.039999 2.237561
v 0.145601 -1.040000 0.989343
v 0.333777 1.039999 2.267976
v 0.072995 -1.040000 0.997332
v 0.167335 1.039999 2.286289
v -0.000000 -1.040000 1.000000
v -0.000000 1.039999 2.292405
v -0.072995 -1.040000 0.997332
v -0.167335 1.039999 2.286289
v -0.145601 -1.040000 0.989343
v -0.333777 1.039999 2.267976
v -0.217430 -1.040000 0.976076
v -0.498438 1.039999 2.237561
v -0.288099 -1.040000 0.957601
v -0.660440 1.039999 2.195208
v -0.357231 -1.040000 0.934016
v -0.818918 1.039999 2.141143
v -0.424457 -1.040000 0.905448
v -0.973026 1.039999 2.075654
v -0.489418 -1.040000 0.872049
v -1.121944 1.039999 1.999090
v -0.551768 -1.040000 0.833998
v -1.264875 1.039999 1.911861
v -0.611174 -1.040000 0.791497
v -1.401057 1.039999 1.814430
v -0.667319 -1.040000 0.744772
v -1.529765 1.039999 1.707320
v -0.719904 -1.040000 0.694074
v -1.650310 1.039999 1.591099
v -0.768647 -1.040000 0.639673
v -1.762051 1.039999 1.466389
v -0.813290 -1.040000 0.581859
v -1.864389 1.039999 1.333857
v -0.853593 -1.040000 0.520940
v -1.956781 1.039999 1.194206
v -0.889342 -1.040000 0.457243
v -2.038732 1.039999 1.048185
v -0.920346 -1.040000 0.391105
v -2.109806 1.039999 0.896570
v -0.946440 -1.040000 0.322880
v -2.169623 1.039999 0.740172
v -0.967484 -1.040000 0.252933
v -2.217864 1.039999 0.579826
v -0.983366 -1.040000 0.181637
v -2.254272 1.039999 0.416385
v -0.994001 -1.040000 0.109371
v -2.278653 1.039999 0.250723
v -0.999333 -1.040000 0.036522
v -2.290875 1.039999 0.083723
v -0.999333 -1.040000 -0.036522
v -2.290875 1.039999 -0.083723
v -0.994001 -1.040000 -0.109371
v -2.278653 1.039999 -0.250723
v -0.983366 -1.040000 -0.181637
v -2.254272 1.039999 -0.416385
v -0.967484 -1.040000 -0.252933
v -2.217864 1.039999 -0.579826
v -0.946440 -1.040000 -0.322880
v -2.169623 1.039999 -0.740172
v -0.920346 -1.040000 -0.391105
v -2.109806 1.039999 -0.896570
v -0.889342 -1.040000 -0.457242
v -2.038733 1.039999 -1.048184
v -0.853593 -1.040000 -0.520940
v -1.956781 1.039999 -1.194206
v -0.813290 -1.040000 -0.581859
v -1.864389 1.039999 -1.333857
v -0.768647 -1.040000 -0.639673
v -1.762051 1.039999 -1.466390
v -0.719903 -1.040000 -0.694074
v -1.650310 1.039999 -1.591099
v -0.667319 -1.040000 -0.744772
v -1.529765 1.039999 -1.707319
v -0.611174 -1.040000 -0.791497
v -1.401057 1.039999 -1.814430
v -0.551768 -1.040000 -0.833998
v -1.264875 1.039999 -1.911860
v -0.489418 -1.040000 -0.872049
v -1.121944 1.039999 -1.999090
v -0.424457 -1.040000 -0.905448
v -0.973027 1.039999 -2.075654
v -0.357231 -1.040000 -0.934016
v -0.818918 1.039999 -2.141143
v -0.288099 -1.040000 -0.957601
v -0.660440 1.039999 -2.195208
v -0.217430 -1.040000 -0.976076
v -0.498438 1.039999 -2.237561
v -0.145601 -1.040000 -0.989343
v -0.333776 1.039999 -2.267976
v -0.072995 -1.040000 -0.997332
v -0.167335 1.039999 -2.286289
vt 1.000000 0.500000
vt 1.000000 1.000000
vt 0.988372 1.000000
vt 0.988372 0.500000
vt 0.976744 1.000000
vt 0.976744 0.500000
vt 0.965116 1.000000
vt 0.965116 0.500000
vt 0.953488 1.000000
vt 0.953488 0.500000
vt 0.941860 1.000000
vt 0.941860 0.500000
vt 0.930233 1.000000
vt 0.930233 0.500000
vt 0.918605 1.000000
vt 0.918605 0.500000
vt 0.906977 1.000000
vt 0.906977 0.500000
vt 0.895349 1.000000
vt 0.895349 0.500000
vt 0.883721 1.000000
vt 0.883721 0.500000
vt 0.872093 1.000000
vt 0.872093 0.500000
vt 0.860465 1.000000
vt 0.860465 0.500000
vt 0.848837 1.000000
vt 0.848837 0.500000
vt 0.837209 1.000000
vt 0.837209 0.500000
vt 0.825581 1.000000
vt 0.825581 0.500000
vt 0.813953 1.000000
vt 0.813953 0.500000
vt 0.802325 1.000000
vt 0.802325 0.500000
vt 0.790698 1.000000
vt 0.790698 0.500000
vt 0.779070 1.000000
vt 0.779070 0.500000
vt 0.767442 1.000000
vt 0.767442 0.500000
vt 0.755814 1.000000
vt 0.755814 0.500000
vt 0.744186 1.000000
vt 0.744186 0.500000
vt 0.732558 1.000000
vt 0.732558 0.500000
vt 0.720930 1.000000
vt 0.720930 0.500000
vt 0.709302 1.000000
vt 0.709302 0.500000
vt 0.697674 1.000000
vt 0.697674 0.500000
vt 0.686046 1.000000
vt 0.686046 0.500000
vt 0.674418 1.000000
vt 0.674418 0.500000
vt 0.662791 1.000000
vt 0.662791 0.500000
vt 0.651163 1.000000
vt 0.651163 0.500000
vt 0.639535 1.000000
vt 0.639535 0.500000
vt 0.627907 1.000000
vt 0.627907 0.500000
vt 0.616279 1.000000
vt 0.616279 0.500000
vt 0.604651 1.000000
vt 0.604651 0.500000
vt 0.593023 1.000000
vt 0.593023 0.500000
vt 0.581395 1.000000
vt 0.581395 0.500000
vt 0.569767 1.000000
vt 0.569767 0.500000
vt 0.558139 1.000000
vt 0.558139 0.500000
vt 0.546511 1.000000
vt 0.546511 0.500000
vt 0.534883 1.000000
vt 0.534883 0.500000
vt 0.523256 1.000000
vt 0.523256 0.500000
vt 0.511628 1.000000
vt 0.511628 0.500000
vt 0.500000 1.000000
vt 0.500000 0.500000
vt 0.488372 1.000000
vt 0.488372 0.500000
vt 0.476744 1.000000
vt 0.476744 0.500000
vt 0.465116 1.000000
vt 0.465116 0.500000
vt 0.453488 1.000000
vt 0.453488 0.500000
vt 0.441860 1.000000
vt 0.441860 0.500000
vt 0.430232 1.000000
vt 0.430232 0.500000
vt 0.418604 1.000000
vt 0.418604 0.500000
vt 0.406976 1.000000
vt 0.406976 0.500000
vt 0.395349 1.000000
vt 0.395349 0.500000
vt 0.383721 1.000000
vt 0.383721 0.500000
vt 0.372093 1.000000
vt 0.372093 0.500000
vt 0.360465 1.000000
vt 0.360465 0.500000
vt 0.348837 1.000000
vt 0.348837 0.500000
vt 0.337209 1.000000
vt 0.337209 0.500000
vt 0.325581 1.000000
vt 0.325581 0.500000
vt 0.313953 1.000000
vt 0.313953 0.500000
vt 0.302325 1.000000
vt 0.302325 0.500000
vt 0.290697 1.000000
vt 0.290697 0.500000
vt 0.279069 1.000000
vt 0.279069 0.500000
vt 0.267442 1.000000
vt 0.267442 0.500000
vt 0.255814 1.000000
vt 0.255814 0.500000
vt 0.244186 1.000000
vt 0.244186 0.500000
vt 0.232558 1.000000
vt 0.232558 0.500000
vt 0.220930 1.000000
vt 0.220930 0.500000
vt 0.209302 1.000000
vt 0.209302 0.500000
vt 0.197674 1.000000
vt 0.197674 0.500000
vt 0.186046 1.000000
vt 0.186046 0.500000
vt 0.174418 1.000000
vt 0.174418 0.500000
vt 0.162790 1.000000
vt 0.162790 0.500000
vt 0.151162 1.000000
vt 0.151162 0.500000
vt 0.139534 1.000000
vt 0.139534 0.500000
vt 0.127907 1.000000
vt 0.127907 0.500000
vt 0.116279 1.000000
vt 0.116279 0.500000
vt 0.104651 1.000000
vt 0.104651 0.500000
vt 0.093023 1.000000
vt 0.093023 0.500000
vt 0.081395 1.000000
vt 0.081395 0.500000
vt 0.069767 1.000000
vt 0.069767 0.500000
vt 0.058139 1.000000
vt 0.058139 0.500000
vt 0.046511 1.000000
vt 0.046511 0.500000
vt 0.034883 1.000000
vt 0.034883 0.500000
vt 0.023255 1.000000
vt 0.023255 0.500000
vt 0.267519 0.489360
vt 0.250000 0.490000
vt 0.232481 0.489360
vt 0.215056 0.487442
vt 0.197817 0.484258
vt 0.180856 0.479824
vt 0.164265 0.474164
vt 0.148130 0.467308
vt 0.132540 0.459292
vt 0.117576 0.450159
vt 0.103318 0.439959
vt 0.089843 0.428745
vt 0.077223 0.416578
vt 0.065525 0.403522
vt 0.054810 0.389646
vt 0.045138 0.375026
vt 0.036558 0.359738
vt 0.029117 0.343865
vt 0.022854 0.327491
vt 0.017804 0.310704
vt 0.013992 0.293593
vt 0.011440 0.276249
vt 0.010160 0.258765
vt 0.010160 0.241235
vt 0.011440 0.223751
vt 0.013992 0.206407
vt 0.017804 0.189296
vt 0.022854 0.172509
vt 0.029117 0.156135
vt 0.036558 0.140262
vt 0.045138 0.124974
vt 0.054810 0.110354
vt 0.065525 0.096478
vt 0.077223 0.083422
vt 0.089844 0.071255
vt 0.103318 0.060041
vt 0.117576 0.049841
vt 0.132540 0.040708
vt 0.148130 0.032692
vt 0.164265 0.025836
vt 0.180856 0.020176
vt 0.197817 0.015742
vt 0.215056 0.012558
vt 0.232481 0.010640
vt 0.250000 0.010000
vt 0.267519 0.010640
vt 0.284944 0.012558
vt 0.302183 0.015742
vt 0.319144 0.020176
vt 0.335735 0.025836
vt 0.351870 0.032692
vt 0.367460 0.040708
vt 0.382424 0.049841
vt 0.396682 0.060041
vt 0.410156 0.071255
vt 0.422777 0.083422
vt 0.434475 0.096478
vt 0.445190 0.110354
vt 0.454862 0.124974
vt 0.463442 0.140262
vt 0.470883 0.156135
vt 0.477146 0.172509
vt 0.482196 0.189296
vt 0.486008 0.206407
vt 0.488560 0.223751
vt 0.489840 0.241235
vt 0.489840 0.258765
vt 0.488560 0.276249
vt 0.486008 0.293593
vt 0.482196 0.310704
vt 0.477146 0.327491
vt 0.470883 0.343865
vt 0.463442 0.359738
vt 0.454862 0.375026
vt 0.445190 0.389646
vt 0.434475 0.403522
vt 0.422777 0.416578
vt 0.410157 0.428745
vt 0.396682 0.439959
vt 0.382424 0.450159
vt 0.367460 0.459292
vt 0.351870 0.467308
vt 0.335735 0.474164
vt 0.319144 0.479824
vt 0.302183 0.484258
vt 0.284944 0.487442
vt 0.011628 1.000000
vt 0.011628 0.500000
vt -0.000000 1.000000
vt -0.000000 0.500000
vt 0.750000 0.490000
vt 0.767519 0.489360
vt 0.784944 0.487442
vt 0.802183 0.484258
vt 0.819144 0.479824
vt 0.835735 0.474164
vt 0.851870 0.467308
vt 0.867460 0.459292
vt 0.882424 0.450159
vt 0.896682 0.439959
vt 0.910156 0.428745
vt 0.922777 0.416578
vt 0.934475 0.403522
vt 0.945190 0.389646
vt 0.954862 0.375026
vt 0.963442 0.359738
vt 0.970883 0.343865
vt 0.977146 0.327491
vt 0.982196 0.310704
vt 0.986008 0.293593
vt 0.988560 0.276249
vt 0.989840 0.258765
vt 0.989840 0.241235
vt 0.988560 0.223751
vt 0.986008 0.206407
vt 0.982196 0.189296
vt 0.977146 0.172509
vt 0.970883 0.156135
vt 0.963442 0.140262
vt 0.954862 0.124974
vt 0.945190 0.110354
vt 0.934475 0.096478
vt 0.922777 0.083422
vt 0.910156 0.071255
vt 0.896682 0.060041
vt 0.882424 0.049841
vt 0.867460 0.040708
vt 0.851870 0.032692
vt 0.835735 0.025836
vt 0.819144 0.020176
vt 0.802183 0.015742
vt 0.784944 0.012558
vt 0.767519 0.010640
vt 0.750000 0.010000
vt 0.732481 0.010640
vt 0.715056 0.012558
vt 0.697817 0.015742
vt 0.680856 0.020176
vt 0.664265 0.025836
vt 0.648130 0.032692
vt 0.632540 0.040708
vt 0.617576 0.049841
vt 0.603318 0.060041
vt 0.589844 0.071255
vt 0.577223 0.083422
vt 0.565525 0.096478
vt 0.554811 0.110354
vt 0.545138 0.124974
vt 0.536558 0.140262
vt 0.529117 0.156135
vt 0.522854 0.172509
vt 0.517804 0.189296
vt 0.513992 0.206407
vt 0.511440 0.223751
vt 0.510160 0.241235
vt 0.510160 0.258765
vt 0.511440 0.276249
vt 0.513992 0.293593
vt 0.517804 0.310704
vt 0.522854 0.327491
vt 0.529117 0.343865
vt 0.536558 0.359738
vt 0.545138 0.375026
vt 0.554811 0.389646
vt 0.565525 0.403522
vt 0.577223 0.416578
vt 0.589843 0.428745
vt 0.603318 0.439959
vt 0.617576 0.450159
vt 0.632540 0.459292
vt 0.648130 0.467308
vt 0.664265 0.474164
vt 0.680856 0.479824
vt 0.697817 0.484258
vt 0.715056 0.487442
vt 0.732481 0.489360
vn 0.0310 -0.5275 -0.8490
vn 0.0929 -0.5275 -0.8445
vn 0.1543 -0.5275 -0.8354
vn 0.2149 -0.5275 -0.8219
vn 0.2743 -0.5275 -0.8040
vn 0.3323 -0.5275 -0.7819
vn 0.3884 -0.5275 -0.7555
vn 0.4426 -0.5275 -0.7252
vn 0.4943 -0.5275 -0.6909
vn 0.5434 -0.5275 -0.6530
vn 0.5896 -0.5275 -0.6116
vn 0.6327 -0.5275 -0.5669
vn 0.6724 -0.5275 -0.5192
vn 0.7085 -0.5275 -0.4688
vn 0.7408 -0.5275 -0.4158
vn 0.7692 -0.5275 -0.3606
vn 0.7935 -0.5275 -0.3035
vn 0.8135 -0.5275 -0.2448
vn 0.8292 -0.5275 -0.1847
vn 0.8405 -0.5275 -0.1237
vn 0.8473 -0.5275 -0.0620
vn 0.8495 -0.5275 0.0000
vn 0.8473 -0.5275 0.0620
vn 0.8405 -0.5275 0.1237
vn 0.8292 -0.5275 0.1847
vn 0.8135 -0.5275 0.2448
vn 0.7935 -0.5275 0.3035
vn 0.7692 -0.5275 0.3606
vn 0.7408 -0.5275 0.4158
vn 0.7085 -0.5275 0.4688
vn 0.6724 -0.5275 0.5192
vn 0.6327 -0.5275 0.5669
vn 0.5896 -0.5275 0.6116
vn 0.5434 -0.5275 0.6530
vn 0.4943 -0.5275 0.6909
vn 0.4426 -0.5275 0.7252
vn 0.3884 -0.5275 0.7555
vn 0.3323 -0.5275 0.7819
vn 0.2743 -0.5275 0.8040
vn 0.2149 -0.5275 0.8219
vn 0.1543 -0.5275 0.8354
vn 0.0929 -0.5275 0.8445
vn 0.0310 -0.5275 0.8490
vn -0.0310 -0.5275 0.8490
vn -0.0929 -0.5275 0.8445
vn -0.1543 -0.5275 0.8354
vn -0.2149 -0.5275 0.8219
vn -0.2743 -0.5275 0.8040
vn -0.3323 -0.5275 0.7819
vn -0.3884 -0.5275 0.7555
vn -0.4426 -0.5275 0.7252
vn -0.4943 -0.5275 0.6909
vn -0.5434 -0.5275 0.6530
vn -0.5896 -0.5275 0.6116
vn -0.6327 -0.5275 0.5669
vn -0.6724 -0.5275 0.5192
vn -0.7085 -0.5275 0.4688
vn -0.7408 -0.5275 0.4158
vn -0.7692 -0.5275 0.3606
vn -0.7935 -0.5275 0.3035
vn -0.8135 -0.5275 0.2448
vn -0.8292 -0.5275 0.1847
vn -0.8405 -0.5275 0.1237
vn -0.8473 -0.5275 0.0620
vn -0.8495 -0.5275 0.0000
vn -0.8473 -0.5275 -0.0620
vn -0.8405 -0.5275 -0.1237
vn -0.8292 -0.5275 -0.1847
vn -0.8135 -0.5275 -0.2448
vn -0.7935 -0.5275 -0.3035
vn -0.7692 -0.5275 -0.3606
vn -0.7408 -0.5275 -0.4158
vn -0.7085 -0.5275 -0.4688
vn -0.6724 -0.5275 -0.5192
vn -0.6327 -0.5275 -0.5669
vn -0.5896 -0.5275 -0.6116
vn -0.5434 -0.5275 -0.6530
vn -0.4943 -0.5275 -0.6909
vn -0.4426 -0.5275 -0.7252
vn -0.3884 -0.5275 -0.7555
vn -0.3323 -0.5275 -0.7819
vn -0.2743 -0.5275 -0.8040
vn -0.2149 -0.5275 -0.8219
vn -0.1543 -0.5275 -0.8354
vn 0.0000 1.0000 0.0000
vn -0.0929 -0.5275 -0.8445
vn -0.0310 -0.5275 -0.8490
vn 0.0000 -1.0000 0.0000
usemtl None
s off
f 1/1/1 2/2/1 4/3/1 3/4/1
f 3/4/2 4/3/2 6/5/2 5/6/2
f 5/6/3 6/5/3 8/7/3 7/8/3
f 7/8/4 8/7/4 10/9/4 9/10/4
f 9/10/5 10/9/5 12/11/5 11/12/5
f 11/12/6 12/11/6 14/13/6 13/14/6
f 13/14/7 14/13/7 16/15/7 15/16/7
f 15/16/8 16/15/8 18/17/8 17/18/8
f 17/18/9 18/17/9 20/19/9 19/20/9
f 19/20/10 20/19/10 22/21/10 21/22/10
f 21/22/11 22/21/11 24/23/11 23/24/11
f 23/24/12 24/23/12 26/25/12 25/26/12
f 25/26/13 26/25/13 28/27/13 27/28/13
f 27/28/14 28/27/14 30/29/14 29/30/14
f 29/30/15 30/29/15 32/31/15 31/32/15
f 31/32/16 32/31/16 34/33/16 33/34/16
f 33/34/17 34/33/17 36/35/17 35/36/17
f 35/36/18 36/35/18 38/37/18 37/38/18
f 37/38/19 38/37/19 40/39/19 39/40/19
f 39/40/20 40/39/20 42/41/20 41/42/20
f 41/42/21 42/41/21 44/43/21 43/44/21
f 43/44/22 44/43/22 46/45/22 45/46/22
f 45/46/23 46/45/23 48/47/23 47/48/23
f 47/48/24 48/47/24 50/49/24 49/50/24
f 49/50/25 50/49/25 52/51/25 51/52/25
f 51/52/26 52/51/26 54/53/26 53/54/26
f 53/54/27 54/53/27 56/55/27 55/56/27
f 55/56/28 56/55/28 58/57/28 57/58/28
f 57/58/29 58/57/29 60/59/29 59/60/29
f 59/60/30 60/59/30 62/61/30 61/62/30
f 61/62/31 62/61/31 64/63/31 63/64/31
f 63/64/32 64/63/32 66/65/32 65/66/32
f 65/66/33 66/65/33 68/67/33 67/68/33
f 67/68/34 68/67/34 70/69/34 69/70/34
f 69/70/35 70/69/35 72/71/35 71/72/35
f 71/72/36 72/71/36 74/73/36 73/74/36
f 73/74/37 74/73/37 76/75/37 75/76/37
f 75/76/38 76/75/38 78/77/38 77/78/38
f 77/78/39 78/77/39 80/79/39 79/80/39
f 79/80/40 80/79/40 82/81/40 81/82/40
f 81/82/41 82/81/41 84/83/41 83/84/41
f 83/84/42 84/83/42 86/85/42 85/86/42
f 85/86/43 86/85/43 88/87/43 87/88/43
f 87/88/44 88/87/44 90/89/44 89/90/44
f 89/90/45 90/89/45 92/91/45 91/92/45
f 91/92/46 92/91/46 94/93/46 93/94/46
f 93/94/47 94/93/47 96/95/47 95/96/47
f 95/96/48 96/95/48 98/97/48 97/98/48
f 97/98/49 98/97/49 100/99/49 99/100/49
f 99/100/50 100/99/50 102/101/50 101/102/50
f 101/102/51 102/101/51 104/103/51 103/104/51
f 103/104/52 104/103/52 106/105/52 105/106/52
f 105/106/53 106/105/53 108/107/53 107/108/53
f 107/108/54 108/107/54 110/109/54 109/110/54
f 109/110/55 110/109/55 112/111/55 111/112/55
f 111/112/56 112/111/56 114/113/56 113/114/56
f 113/114/57 114/113/57 116/115/57 115/116/57
f 115/116/58 116/115/58 118/117/58 117/118/58
f 117/118/59 118/117/59 120/119/59 119/120/59
f 119/120/60 120/119/60 122/121/60 121/122/60
f 121/122/61 122/121/61 124/123/61 123/124/61
f 123/124/62 124/123/62 126/125/62 125/126/62
f 125/126/63 126/125/63 128/127/63 127/128/63
f 127/128/64 128/127/64 130/129/64 129/130/64
f 129/130/65 130/129/65 132/131/65 131/132/65
f 131/132/66 132/131/66 134/133/66 133/134/66
f 133/134/67 134/133/67 136/135/67 135/136/67
f 135/136/68 136/135/68 138/137/68 137/138/68
f 137/138/69 138/137/69 140/139/69 139/140/69
f 139/140/70 140/139/70 142/141/70 141/142/70
f 141/142/71 142/141/71 144/143/71 143/144/71
f 143/144/72 144/143/72 146/145/72 145/146/72
f 145/146/73 146/145/73 148/147/73 147/148/73
f 147/148/74 148/147/74 150/149/74 149/150/74
f 149/150/75 150/149/75 152/151/75 151/152/75
f 151/152/76 152/151/76 154/153/76 153/154/76
f 153/154/77 154/153/77 156/155/77 155/156/77
f 155/156/78 156/155/78 158/157/78 157/158/78
f 157/158/79 158/157/79 160/159/79 159/160/79
f 159/160/80 160/159/80 162/161/80 161/162/80
f 161/162/81 162/161/81 164/163/81 163/164/81
f 163/164/82 164/163/82 166/165/82 165/166/82
f 165/166/83 166/165/83 168/167/83 167/168/83
f 167/168/84 168/167/84 170/169/84 169/170/84
f 4/171/85 2/172/85 172/173/85 170/174/85 168/175/85 166/176/85 164/177/85 162/178/85 160/179/85 158/180/85 156/181/85 154/182/85 152/183/85 150/184/85 148/185/85 146/186/85 144/187/85 142/188/85 140/189/85 138/190/85 136/191/85 134/192/85 132/193/85 130/194/85 128/195/85 126/196/85 124/197/85 122/198/85 120/199/85 118/200/85 116/201/85 114/202/85 112/203/85 110/204/85 108/205/85 106/206/85 104/207/85 102/208/85 100/209/85 98/210/85 96/211/85 94/212/85 92/213/85 90/214/85 88/215/85 86/216/85 84/217/85 82/218/85 80/219/85 78/220/85 76/221/85 74/222/85 72/223/85 70/224/85 68/225/85 66/226/85 64/227/85 62/228/85 60/229/85 58/230/85 56/231/85 54/232/85 52/233/85 50/234/85 48/235/85 46/236/85 44/237/85 42/238/85 40/239/85 38/240/85 36/241/85 34/242/85 32/243/85 30/244/85 28/245/85 26/246/85 24/247/85 22/248/85 20/249/85 18/250/85 16/251/85 14/252/85 12/253/85 10/254/85 8/255/85 6/256/85
f 169/170/86 170/169/86 172/257/86 171/258/86
f 171/258/87 172/257/87 2/259/87 1/260/87
f 1/261/88 3/262/88 5/263/88 7/264/88 9/265/88 11/266/88 13/267/88 15/268/88 17/269/88 19/270/88 21/271/88 23/272/88 25/273/88 27/274/88 29/275/88 31/276/88 33/277/88 35/278/88 37/279/88 39/280/88 41/281/88 43/282/88 45/283/88 47/284/88 49/285/88 51/286/88 53/287/88 55/288/88 57/289/88 59/290/88 61/291/88 63/292/88 65/293/88 67/294/88 69/295/88 71/296/88 73/297/88 75/298/88 77/299/88 79/300/88 81/301/88 83/302/88 85/303/88 87/304/88 89/305/88 91/306/88 93/307/88 95/308/88 97/309/88 99/310/88 101/311/88 103/312/88 105/313/88 107/314/88 109/315/88 111/316/88 113/317/88 115/318/88 117/319/88 119/320/88 121/321/88 123/322/88 125/323/88 127/324/88 129/325/88 131/326/88 133/327/88 135/328/88 137/329/88 139/330/88 141/331/88 143/332/88 145/333/88 147/334/88 149/335/88 151/336/88 153/337/88 155/338/88 157/339/88 159/340/88 161/341/88 163/342/88 165/343/88 167/344/88 169/345/88 171/346/88
